<svg fill="#000000" xmlns="http://www.w3.org/2000/svg"  viewBox="0 0 50 50" width="32px" height="32px"><path fill="none" stroke="#000000" stroke-linejoin="round" stroke-miterlimit="10" stroke-width="2" d="M38.462,47.23H9.615c0,0-7.692,0.092-7.692-7.746c0-7.84,0-35.715,0-35.715"/><path fill="none" stroke="#000000" stroke-linejoin="round" stroke-miterlimit="10" stroke-width="2" d="M48.077,39.539c0,7.695-6.692,7.691-6.692,7.691s-7.692-0.027-7.692-7.746s0-35.715,0-35.715H1.923c0,0,0,27.875,0,35.715c0,7.838,7.692,7.746,7.692,7.746h30.77"/><path fill="none" stroke="#000000" stroke-linecap="round" stroke-linejoin="round" stroke-miterlimit="10" stroke-width="2" d="M40.385,38.615v-24.23c0,0,0.09-3.846,3.846-3.846s3.847,3.9,3.847,3.9v25.1"/><path fill="none" stroke="#000000" stroke-linejoin="round" stroke-miterlimit="10" stroke-width="2" d="M44.23 10.495L34.756 10.495"/><path fill="none" stroke="#000000" stroke-linecap="round" stroke-linejoin="round" stroke-miterlimit="10" stroke-width="2" d="M7.692 28L14.462 28M7.692 24L14.462 24M7.692 32L14.462 32M7.692 36L14.462 36M7.692 40L14.462 40M19.23 28L26.923 28M19.23 24L26.923 24M7.23 16L26.923 16M7.23 12L26.923 12M19.23 31.77L26.923 31.77M19.23 35.77L26.923 35.77M19.23 39.539L26.923 39.539"/></svg>